<?xml version="1.0" encoding="iso-8859-1"?>
<!-- Generator: Adobe Illustrator 19.0.0, SVG Export Plug-In . SVG Version: 6.00 Build 0)  -->
<svg version="1.1" id="Capa_1" xmlns="http://www.w3.org/2000/svg" xmlns:xlink="http://www.w3.org/1999/xlink" x="0px" y="0px"
	 viewBox="0 0 512 512" style="enable-background:new 0 0 512 512;" xml:space="preserve">
<path style="fill:#E6646E;" d="M222.968,512h-16.516c-4.561,0-8.258-3.697-8.258-8.258V379.871h33.032v123.871
	C231.226,508.303,227.529,512,222.968,512z"/>
<path style="fill:#DC4655;" d="M222.968,412.903h8.258v-33.032h-33.032v123.871c0,4.561,3.697,8.258,8.258,8.258h8.258v-90.839
	C214.71,416.6,218.407,412.903,222.968,412.903z"/>
<path style="fill:#00C3FF;" d="M305.548,512h-16.516c-4.561,0-8.258-3.697-8.258-8.258V379.871h33.032v123.871
	C313.806,508.303,310.109,512,305.548,512z"/>
<path style="fill:#00AAF0;" d="M305.548,412.903h8.258v-33.032h-33.032v123.871c0,4.561,3.697,8.258,8.258,8.258h8.258v-90.839
	C297.29,416.6,300.988,412.903,305.548,412.903z"/>
<path style="fill:#EDEBED;" d="M379.871,396.387H132.129c-18.243,0-33.032-14.789-33.032-33.032V33.032
	C99.097,14.789,113.886,0,132.129,0h247.742c18.243,0,33.032,14.789,33.032,33.032v330.323
	C412.903,381.598,398.114,396.387,379.871,396.387z"/>
<path style="fill:#5D5360;" d="M324.492,214.71H187.508c-5.226,0-9.903-2.702-12.516-7.23s-2.613-9.927,0-14.452l68.492-118.629
	c2.605-4.524,7.29-7.226,12.516-7.226c5.226,0,9.911,2.702,12.516,7.234l68.492,118.625c2.613,4.52,2.613,9.919,0,14.448
	C334.395,212.008,329.718,214.71,324.492,214.71z M322.702,201.294h0.089H322.702z"/>
<polygon style="fill:#FFDC64;" points="191.089,198.194 320.911,198.194 256,85.754 "/>
<path style="fill:#5D5360;" d="M256,189.94c-0.815,0-1.637-0.125-2.46-0.379c-4.355-1.355-6.782-5.988-5.427-10.339l5.669-18.19
	h-6.79c-2.629,0-5.097-1.25-6.653-3.363c-1.556-2.117-2.016-4.847-1.234-7.351l9.008-28.903c1.363-4.351,5.968-6.766,10.347-5.427
	c4.355,1.355,6.782,5.988,5.427,10.339l-5.669,18.19h6.79c2.629,0,5.097,1.25,6.653,3.363c1.556,2.117,2.016,4.847,1.234,7.351
	l-9.008,28.903C262.782,187.669,259.524,189.94,256,189.94z"/>
<g>
	<path style="fill:#DBD9DC;" d="M330.323,256H181.677c-4.565,0-8.258-3.698-8.258-8.258s3.694-8.258,8.258-8.258h148.645
		c4.565,0,8.258,3.698,8.258,8.258C338.581,252.302,334.887,256,330.323,256z"/>
	<path style="fill:#DBD9DC;" d="M330.323,289.032H181.677c-4.565,0-8.258-3.698-8.258-8.258s3.694-8.258,8.258-8.258h148.645
		c4.565,0,8.258,3.698,8.258,8.258S334.887,289.032,330.323,289.032z"/>
	<path style="fill:#DBD9DC;" d="M330.323,322.065H181.677c-4.565,0-8.258-3.698-8.258-8.258s3.694-8.258,8.258-8.258h148.645
		c4.565,0,8.258,3.698,8.258,8.258S334.887,322.065,330.323,322.065z"/>
	<path style="fill:#DBD9DC;" d="M363.355,239.484v107.355h-214.71V49.548h214.71v107.355c0,4.561,3.697,8.258,8.258,8.258l0,0
		c4.561,0,8.258-3.697,8.258-8.258V41.29c0-4.561-3.697-8.258-8.258-8.258H140.387c-4.561,0-8.258,3.697-8.258,8.258v313.806
		c0,4.561,3.697,8.258,8.258,8.258h231.226c4.561,0,8.258-3.697,8.258-8.258V239.484c0-4.561-3.697-8.258-8.258-8.258l0,0
		C367.052,231.226,363.355,234.923,363.355,239.484z"/>
</g>
<circle style="fill:#AEA8AF;" cx="371.61" cy="198.19" r="16.516"/>
<g>
</g>
<g>
</g>
<g>
</g>
<g>
</g>
<g>
</g>
<g>
</g>
<g>
</g>
<g>
</g>
<g>
</g>
<g>
</g>
<g>
</g>
<g>
</g>
<g>
</g>
<g>
</g>
<g>
</g>
</svg>
