<?xml version="1.0" encoding="iso-8859-1"?>
<!-- Generator: Adobe Illustrator 19.0.0, SVG Export Plug-In . SVG Version: 6.00 Build 0)  -->
<svg version="1.1" id="Capa_1" xmlns="http://www.w3.org/2000/svg" xmlns:xlink="http://www.w3.org/1999/xlink" x="0px" y="0px"
	 viewBox="0 0 512 512" style="enable-background:new 0 0 512 512;" xml:space="preserve">
<path style="fill:#EDEBED;" d="M446.984,459.172H268.191c-22.405,0-40.635-18.23-40.635-40.635V239.744
	c0-22.405,18.23-40.635,40.635-40.635h178.793c22.405,0,40.635,18.23,40.635,40.635v178.793
	C487.619,440.942,469.389,459.172,446.984,459.172z M268.191,215.363c-13.444,0-24.381,10.936-24.381,24.381v178.793
	c0,13.444,10.936,24.381,24.381,24.381h178.793c13.444,0,24.381-10.936,24.381-24.381V239.744c0-13.444-10.936-24.381-24.381-24.381
	H268.191z"/>
<polygon style="fill:#FFF082;" points="398.223,150.348 211.302,36.57 24.382,150.348 24.382,369.775 398.223,369.775 "/>
<g>
	<rect x="24.382" y="288.51" style="fill:#FFDC64;" width="373.84" height="81.27"/>
	<polygon style="fill:#FFDC64;" points="24.382,150.348 24.382,177.155 211.302,65.001 398.223,177.155 398.223,150.348 
		211.302,36.57 	"/>
</g>
<path style="fill:#6F6571;" d="M414.469,166.601c-1.421,0-2.865-0.373-4.175-1.159L211.302,46.046L12.311,165.443
	c-3.849,2.31-8.849,1.063-11.151-2.786c-2.31-3.849-1.063-8.841,2.786-11.151L207.12,29.602c2.571-1.54,5.794-1.54,8.365,0
	l203.174,121.904c3.849,2.31,5.095,7.302,2.786,11.151C419.921,165.197,417.23,166.601,414.469,166.601z"/>
<path style="fill:#DBD9DC;" d="M414.476,377.902H8.128c-4.492,0-8.127-3.635-8.127-8.127s3.635-8.127,8.127-8.127h406.348
	c4.492,0,8.127,3.635,8.127,8.127C422.603,374.268,418.969,377.902,414.476,377.902z"/>
<path style="fill:#FFFFFF;" d="M349.461,296.633H73.144c-4.492,0-8.127-3.635-8.127-8.127V174.728c0-4.492,3.635-8.127,8.127-8.127
	h276.317c4.492,0,8.127,3.635,8.127,8.127v113.777C357.588,292.998,353.953,296.633,349.461,296.633z"/>
<rect x="81.27" y="182.85" style="fill:#6F6571;" width="113.78" height="97.52"/>
<rect x="81.27" y="182.85" style="fill:#5D5360;" width="113.78" height="56.889"/>
<rect x="227.56" y="182.85" style="fill:#6F6571;" width="113.78" height="97.52"/>
<rect x="227.56" y="182.85" style="fill:#5D5360;" width="113.78" height="56.889"/>
<path style="fill:#FFDC64;" d="M495.746,483.553H381.969c-8.977,0-16.254-7.277-16.254-16.254V353.522
	c0-8.977,7.277-16.254,16.254-16.254h113.777c8.977,0,16.254,7.277,16.254,16.254v113.777
	C512,476.276,504.723,483.553,495.746,483.553z"/>
<path style="fill:#FFC850;" d="M446.984,451.045c-26.93,0-48.762-21.831-48.762-48.762v-65.016h-16.254
	c-8.977,0-16.254,7.277-16.254,16.254v113.777c0,8.977,7.277,16.254,16.254,16.254h113.777c8.977,0,16.254-7.277,16.254-16.254
	v-16.254L446.984,451.045L446.984,451.045z"/>
<path style="fill:#5D5360;" d="M438.857,459.172c-1.008,0-2.032-0.183-3.016-0.579c-4.167-1.667-6.198-6.397-4.532-10.563
	l11.802-29.492h-20.508c-2.698,0-5.214-1.341-6.73-3.571c-1.508-2.23-1.817-5.071-0.817-7.571l16.254-40.635
	c1.667-4.183,6.436-6.206,10.563-4.532c4.167,1.667,6.198,6.397,4.532,10.563l-11.802,29.492h20.508c2.698,0,5.214,1.341,6.73,3.571
	c1.508,2.23,1.817,5.071,0.817,7.571l-16.254,40.635C445.135,457.244,442.08,459.172,438.857,459.172z"/>
<rect x="81.27" y="207.24" style="fill:#B7B2B8;" width="260.06" height="16.254"/>
<rect x="195.05" y="182.85" style="fill:#DBD9DC;" width="32.508" height="97.52"/>
<g>
</g>
<g>
</g>
<g>
</g>
<g>
</g>
<g>
</g>
<g>
</g>
<g>
</g>
<g>
</g>
<g>
</g>
<g>
</g>
<g>
</g>
<g>
</g>
<g>
</g>
<g>
</g>
<g>
</g>
</svg>
