<?xml version="1.0" encoding="iso-8859-1"?>
<!-- Generator: Adobe Illustrator 19.0.0, SVG Export Plug-In . SVG Version: 6.00 Build 0)  -->
<svg version="1.1" id="Capa_1" xmlns="http://www.w3.org/2000/svg" xmlns:xlink="http://www.w3.org/1999/xlink" x="0px" y="0px"
	 viewBox="0 0 512.001 512.001" style="enable-background:new 0 0 512.001 512.001;" xml:space="preserve">
<path style="fill:#FFDC64;" d="M256,0.001c-22.804,0-41.29,18.486-41.29,41.29v14.728c0,11.324,1.132,22.606,3.473,33.686
	c4.844,22.932,13.043,76.018,13.043,116.747h49.548c0-40.729,8.199-93.815,13.043-116.747c2.341-11.08,3.473-22.362,3.473-33.686
	V41.291C297.29,18.487,278.804,0.001,256,0.001z"/>
<path style="fill:#FFC850;" d="M268.071,181.678c-4.375,0-7.959-3.405-8.228-7.772c-2.035-33.079-6.426-67.061-9.323-84.201
	c-1.872-11.08-2.778-22.362-2.778-33.686V41.291c0-17.952,9.221-33.074,22.022-38.762c-8.562-3.044-18.153-3.946-28.789,0.744
	c-16.361,7.214-26.265,24.171-26.265,42.052v10.694c0,11.324,1.132,22.606,3.473,33.686c4.844,22.932,13.043,76.018,13.043,116.747
	h49.548c0-7.896,0.315-16.26,0.847-24.774L268.071,181.678L268.071,181.678z"/>
<rect x="247.74" y="231.231" style="fill:#9C969E;" width="16.516" height="247.74"/>
<rect x="247.74" y="231.231" style="fill:#867E88;" width="16.516" height="24.774"/>
<path style="fill:#AEA8AF;" d="M266.266,512.001h-20.531c-2.018,0-3.741-1.459-4.073-3.45l-2.913-17.476
	c-1.777-10.66,6.444-20.364,17.251-20.364l0,0c10.807,0,19.028,9.704,17.251,20.364l-2.913,17.476
	C270.007,510.542,268.284,512.001,266.266,512.001z"/>
<path style="fill:#FFDC64;" d="M272.516,239.485h-33.032c-9.122,0-16.516-7.395-16.516-16.516v-8.258
	c0-9.122,7.395-16.516,16.516-16.516h33.032c9.122,0,16.516,7.395,16.516,16.516v8.258
	C289.032,232.09,281.638,239.485,272.516,239.485z"/>
<path style="fill:#6F6571;" d="M214.71,49.549v6.47c0,11.324,1.132,22.606,3.473,33.686c3.302,15.631,8.158,45.271,10.918,75.457
	h53.798c2.761-30.186,7.616-59.826,10.918-75.457c2.341-11.08,3.473-22.362,3.473-33.686v-6.47
	C297.29,49.549,214.71,49.549,214.71,49.549z"/>
<path style="fill:#5D5360;" d="M214.71,49.549v6.47c0,11.324,1.132,22.606,3.473,33.686c3.302,15.631,8.158,45.271,10.918,75.457
	h30.132c-2.207-30.186-6.072-59.826-8.713-75.457c-1.872-11.08-2.778-22.362-2.778-33.686v-6.47
	C247.742,49.549,214.71,49.549,214.71,49.549z"/>
<g>
</g>
<g>
</g>
<g>
</g>
<g>
</g>
<g>
</g>
<g>
</g>
<g>
</g>
<g>
</g>
<g>
</g>
<g>
</g>
<g>
</g>
<g>
</g>
<g>
</g>
<g>
</g>
<g>
</g>
</svg>
