<?xml version="1.0" encoding="iso-8859-1"?>
<!-- Generator: Adobe Illustrator 19.0.0, SVG Export Plug-In . SVG Version: 6.00 Build 0)  -->
<svg version="1.1" id="Capa_1" xmlns="http://www.w3.org/2000/svg" xmlns:xlink="http://www.w3.org/1999/xlink" x="0px" y="0px"
	 viewBox="0 0 512 512" style="enable-background:new 0 0 512 512;" xml:space="preserve">
<g>
	<path style="fill:#FF8087;" d="M445.934,503.742H82.58c-9.105,0-16.516-7.411-16.516-16.516V322.065
		c0-4.565,3.694-8.258,8.258-8.258s8.258,3.694,8.258,8.258v165.161h363.353v-123.87c0-4.565,3.694-8.258,8.258-8.258
		c4.565,0,8.258,3.694,8.258,8.258v123.87C462.45,496.331,455.039,503.742,445.934,503.742z"/>
	<path style="fill:#FF8087;" d="M74.322,198.195c-4.564,0-8.258-3.694-8.258-8.258V24.776c0-9.105,7.411-16.516,16.516-16.516
		h363.353c9.105,0,16.516,7.411,16.516,16.516v123.87c0,4.564-3.694,8.258-8.258,8.258s-8.258-3.694-8.258-8.258V24.776H82.58
		v165.161C82.58,194.501,78.887,198.195,74.322,198.195z"/>
</g>
<path style="fill:#5D5360;" d="M86,256.001l39.58-39.58c3.226-3.226,3.226-8.452,0-11.677c-3.226-3.226-8.452-3.226-11.677,0
	l-39.58,39.581l-39.58-39.581c-3.226-3.226-8.452-3.226-11.677,0c-3.226,3.226-3.226,8.452,0,11.677l39.579,39.58l-39.58,39.581
	c-3.226,3.226-3.226,8.452,0,11.677c1.613,1.613,3.726,2.419,5.839,2.419s4.226-0.806,5.839-2.419l39.58-39.581l39.58,39.581
	c1.613,1.613,3.726,2.419,5.839,2.419s4.226-0.806,5.839-2.419c3.226-3.226,3.226-8.452,0-11.677L86,256.001z"/>
<g>
	<circle style="fill:#DC4655;" cx="264.26" cy="495.481" r="16.516"/>
	<circle style="fill:#DC4655;" cx="264.26" cy="16.518" r="16.516"/>
</g>
<path style="fill:#00C3FF;" d="M462.45,301.678v-91.354l46.58-38.814c3.5-2.919,3.976-8.129,1.056-11.637
	c-2.927-3.5-8.113-3.968-11.637-1.056l-46.589,38.831c-3.766,3.153-5.927,7.774-5.927,12.677v37.419H272.515V181.68
	c0-4.564-3.694-8.258-8.258-8.258s-8.258,3.694-8.258,8.258v66.064H140.387c-4.564,0-8.258,3.694-8.258,8.258
	c0,4.564,3.694,8.258,8.258,8.258h115.612v66.064c0,4.565,3.694,8.258,8.258,8.258c4.565,0,8.258-3.694,8.258-8.258V264.26h173.419
	v37.419c0,4.903,2.161,9.524,5.935,12.694l46.58,38.814c1.548,1.282,3.419,1.911,5.282,1.911c2.371,0,4.718-1.008,6.355-2.968
	c2.919-3.508,2.444-8.718-1.056-11.637L462.45,301.678z"/>
<g>
	<circle style="fill:#0096DC;" cx="264.26" cy="181.681" r="16.516"/>
	<circle style="fill:#0096DC;" cx="264.26" cy="330.321" r="16.516"/>
</g>
<path style="fill:#4B3F4E;" d="M74.322,330.323C33.339,330.323,0,296.985,0,256.001s33.339-74.322,74.322-74.322
	s74.322,33.339,74.322,74.322S115.306,330.323,74.322,330.323z M74.322,198.195c-31.871,0-57.806,25.935-57.806,57.806
	s25.935,57.806,57.806,57.806s57.806-25.935,57.806-57.806S106.193,198.195,74.322,198.195z"/>
<g>
</g>
<g>
</g>
<g>
</g>
<g>
</g>
<g>
</g>
<g>
</g>
<g>
</g>
<g>
</g>
<g>
</g>
<g>
</g>
<g>
</g>
<g>
</g>
<g>
</g>
<g>
</g>
<g>
</g>
</svg>
